HIERARCHY
ROOT Hips
{
	OFFSET -0.001795 -0.223333 0.028219
	CHANNELS 6 Xposition Yposition Zposition Zrotation Yrotation Xrotation 
	JOINT LeftUpLeg
	{
		OFFSET 0.069520 -0.091406 -0.006815
		CHANNELS 3 Zrotation Yrotation Xrotation
		JOINT LeftLeg
		{
			OFFSET 0.034277 -0.375199 -0.004496
			CHANNELS 3 Zrotation Yrotation Xrotation
			JOINT LeftFoot
			{
				OFFSET -0.013596 -0.397961 -0.043693
				CHANNELS 3 Zrotation Yrotation Xrotation
				JOINT LeftToe
				{
					OFFSET 0.026358 -0.055791 0.119288
					CHANNELS 3 Zrotation Yrotation Xrotation
					End Site
					{
						OFFSET 0.000000 0.000000 0.000000
					}
				}
			}
		}
	}
	JOINT RightUpLeg
	{
		OFFSET -0.067670 -0.090522 -0.004320
		CHANNELS 3 Zrotation Yrotation Xrotation
		JOINT RightLeg
		{
			OFFSET -0.038290 -0.382569 -0.008850
			CHANNELS 3 Zrotation Yrotation Xrotation
			JOINT RightFoot
			{
				OFFSET 0.015774 -0.398415 -0.042312
				CHANNELS 3 Zrotation Yrotation Xrotation
				JOINT RightToe
				{
					OFFSET -0.025372 -0.048144 0.123348
					CHANNELS 3 Zrotation Yrotation Xrotation
					End Site
					{
						OFFSET 0.000000 0.000000 0.000000
					}
				}
			}
		}
	}
	JOINT Spine
	{
		OFFSET -0.002533 0.108963 -0.026696
		CHANNELS 3 Zrotation Yrotation Xrotation
		JOINT Spine1
		{
			OFFSET 0.005487 0.135180 0.001092
			CHANNELS 3 Zrotation Yrotation Xrotation
			JOINT Spine2
			{
				OFFSET 0.001457 0.052922 0.025425
				CHANNELS 3 Zrotation Yrotation Xrotation
				JOINT Neck
				{
					OFFSET -0.002778 0.213870 -0.042857
					CHANNELS 3 Zrotation Yrotation Xrotation
					JOINT Head
					{
						OFFSET 0.005152 0.064970 0.051349
						CHANNELS 3 Zrotation Yrotation Xrotation
						End Site
						{
							OFFSET 0.000000 0.000000 0.000000
						}
					}
				}
				JOINT LeftShoulder
				{
					OFFSET 0.078845 0.121749 -0.034090
					CHANNELS 3 Zrotation Yrotation Xrotation
					JOINT LeftArm
					{
						OFFSET 0.090977 0.030469 -0.008868
						CHANNELS 3 Zrotation Yrotation Xrotation
						JOINT LeftForeArm
						{
							OFFSET 0.259612 -0.012772 -0.027456
							CHANNELS 3 Zrotation Yrotation Xrotation
							JOINT LeftHand
							{
								OFFSET 0.249234 0.008986 -0.001171
								CHANNELS 3 Zrotation Yrotation Xrotation
								End Site
								{
									OFFSET 0.000000 0.000000 0.000000
								}
							}
						}
					}
				}
				JOINT RightShoulder
				{
					OFFSET -0.081759 0.118833 -0.038615
					CHANNELS 3 Zrotation Yrotation Xrotation
					JOINT RightArm
					{
						OFFSET -0.096012 0.032551 -0.009143
						CHANNELS 3 Zrotation Yrotation Xrotation
						JOINT RightForeArm
						{
							OFFSET -0.253742 -0.013329 -0.021401
							CHANNELS 3 Zrotation Yrotation Xrotation
							JOINT RightHand
							{
								OFFSET -0.255298 0.007772 -0.005559
								CHANNELS 3 Zrotation Yrotation Xrotation
								End Site
								{
									OFFSET 0.000000 0.000000 0.000000
								}
							}
						}
					}
				}
			}
		}
	}
}
MOTION
Frames: 17
Frame Time: 0.050000
-0.031783 0.947513 -0.028741 -2.418679 -50.520130 5.673854 1.727946 1.611836 9.499339 -3.453660 0.936011 -9.351831 26.338382 34.559466 33.912416 0.000000 0.000000 0.000000 2.228566 1.269988 -11.742990 -4.468776 0.464499 3.146779 22.467872 26.896572 18.817911 0.000000 0.000000 0.000000 9.501574 -0.484326 6.357585 0.809945 0.125904 -27.481023 -17.828924 -22.537002 33.424682 1.629913 -7.012226 -31.553278 0.000000 0.000000 0.000000 1.322060 -25.897645 14.559796 -43.781321 -43.235512 16.848718 21.666893 -20.764141 -3.266788 0.000000 0.000000 0.000000 9.477301 -6.158402 -16.301526 55.743109 -20.737089 -18.673562 84.063488 46.171298 22.924423 0.000000 0.000000 0.000000 
-0.030668 0.947704 -0.030209 -1.790566 -48.013139 4.978881 2.071474 1.617740 9.748724 -3.714632 0.984254 -9.974811 24.390046 33.035888 31.923699 0.000000 0.000000 0.000000 1.410718 1.206903 -11.378508 -3.724732 0.425963 3.184503 20.823179 25.212696 17.554931 0.000000 0.000000 0.000000 9.505497 -0.497977 6.293072 0.408018 0.240488 -27.743943 -17.689551 -21.742293 34.010357 1.879257 -7.029526 -31.336681 0.000000 0.000000 0.000000 1.945997 -25.913179 13.557161 -44.634549 -39.931053 15.163524 20.402514 -22.294900 -3.083770 0.000000 0.000000 0.000000 10.003825 -6.892805 -16.298550 56.811419 -19.198978 -18.263036 82.675748 47.437679 23.937161 0.000000 0.000000 0.000000 
-0.029699 0.947667 -0.031445 -1.235864 -45.586048 4.438672 1.961555 1.538056 9.589961 -3.257474 0.897502 -10.046783 22.854143 31.786354 30.289650 0.000000 0.000000 0.000000 0.763655 1.117223 -10.793311 -3.275131 0.359503 2.710743 19.323857 23.620752 16.417882 0.000000 0.000000 0.000000 9.274735 -0.492527 5.981538 -0.082603 0.236192 -27.034478 -16.697345 -20.909274 33.700456 1.693949 -6.722082 -31.447288 0.000000 0.000000 0.000000 2.027446 -24.712568 12.357529 -46.127589 -35.975079 13.238682 19.213377 -26.760603 -3.054016 0.000000 0.000000 0.000000 10.468180 -7.875623 -16.122219 57.380699 -17.535877 -17.513949 81.072783 48.934402 25.060151 0.000000 0.000000 0.000000 
-0.029039 0.947701 -0.032576 -0.705885 -41.959524 3.919573 2.772541 1.411867 9.255554 -4.015146 0.956479 -9.937664 20.433642 29.666551 27.715507 0.000000 0.000000 0.000000 0.303418 0.987466 -9.863623 -3.168525 0.299781 1.978971 17.181709 21.256216 14.855196 0.000000 0.000000 0.000000 9.034899 -0.493713 5.643709 -1.007744 0.406072 -26.826392 -15.618410 -19.989382 33.839125 1.916519 -6.491074 -31.444196 0.000000 0.000000 0.000000 1.259387 -22.888657 11.308126 -47.585673 -31.934569 10.905332 18.678422 -34.075616 -3.069292 0.000000 0.000000 0.000000 11.460461 -9.012136 -16.183893 57.489695 -15.768866 -16.403230 77.756822 50.830806 26.036149 0.000000 0.000000 0.000000 
-0.028376 0.947493 -0.033450 -0.381438 -37.965206 3.569934 3.558167 1.246566 8.712743 -4.464980 0.952922 -9.600223 18.016675 27.409091 25.140369 0.000000 0.000000 0.000000 -0.399135 0.871875 -8.877491 -2.383794 0.210664 1.261305 14.932785 18.473618 13.452194 0.000000 0.000000 0.000000 8.764757 -0.483969 5.207097 -1.722339 0.519010 -26.125917 -14.065116 -18.515290 33.777166 2.064499 -6.078886 -31.401278 0.000000 0.000000 0.000000 0.517954 -20.680622 10.011146 -48.865419 -26.950846 7.985994 17.477974 -44.694039 -2.331739 0.000000 0.000000 0.000000 12.448326 -10.044226 -15.873769 57.342113 -14.508559 -15.477404 74.852084 54.109052 28.560546 0.000000 0.000000 0.000000 
-0.027673 0.947813 -0.034356 -0.154681 -33.471375 3.323302 4.103914 1.121872 8.524253 -4.318143 0.899951 -10.145346 15.386109 24.584953 22.953938 0.000000 0.000000 0.000000 -0.835475 0.774597 -7.961654 -1.922143 0.159284 0.762574 12.562426 15.238341 12.222468 0.000000 0.000000 0.000000 8.289820 -0.472450 4.762826 -2.905798 0.776299 -25.370740 -11.843062 -17.361904 33.430707 1.986735 -5.450307 -31.616432 0.000000 0.000000 0.000000 -1.374407 -18.234584 9.381895 -48.482235 -21.444641 4.201501 14.400155 -56.043731 0.103831 0.000000 0.000000 0.000000 13.276767 -10.741330 -15.261883 57.618374 -11.943850 -14.150994 70.794745 58.174852 30.844896 0.000000 0.000000 0.000000 
-0.026880 0.948089 -0.035056 -0.056279 -29.437266 3.160073 4.757796 0.946013 7.843693 -4.429116 0.847479 -9.795517 13.215780 22.156295 21.069174 0.000000 0.000000 0.000000 -1.212700 0.690691 -7.094797 -1.357144 0.103737 0.269164 10.556226 12.256634 11.432262 0.000000 0.000000 0.000000 7.934312 -0.466866 4.502009 -4.269719 1.155224 -25.200609 -9.681757 -15.437591 33.155283 1.657166 -4.696741 -31.192792 0.000000 0.000000 0.000000 -2.352919 -15.060575 7.898435 -46.981513 -15.886150 0.709180 5.926629 -66.291527 7.039836 0.000000 0.000000 0.000000 12.822251 -11.817062 -13.893440 57.820505 -9.165841 -13.124720 66.686821 62.071099 32.780330 0.000000 0.000000 0.000000 
-0.026178 0.948544 -0.036161 -0.378321 -25.206858 3.240523 6.047997 0.778052 7.235943 -4.940075 0.842583 -9.828530 10.950153 19.439847 19.395803 0.000000 0.000000 0.000000 -0.847075 0.598757 -6.264890 -1.297539 0.075631 -0.255725 8.608545 9.094633 10.977754 0.000000 0.000000 0.000000 7.752824 -0.464917 4.217667 -5.920224 1.610865 -24.689838 -6.855052 -14.060673 32.521090 2.040441 -4.298886 -30.475188 0.000000 0.000000 0.000000 -3.125304 -12.372717 6.665793 -44.683124 -10.186246 -2.389833 -2.870455 -75.453488 16.044570 0.000000 0.000000 0.000000 12.358685 -13.207330 -12.983375 57.977515 -6.829244 -12.166921 65.272889 65.700762 36.081334 0.000000 0.000000 0.000000 
-0.025815 0.949425 -0.037427 -0.595672 -21.564332 3.049259 6.865731 0.631076 6.573999 -4.968294 0.783266 -9.334370 9.123300 17.148435 18.212785 0.000000 0.000000 0.000000 -0.712626 0.487703 -5.137661 -0.919499 0.016818 -1.083006 7.078353 6.330326 11.033496 0.000000 0.000000 0.000000 7.453165 -0.453041 4.013354 -6.815467 1.899935 -24.234754 -5.201662 -11.406624 32.388276 2.915444 -4.044943 -30.097227 0.000000 0.000000 0.000000 -2.147253 -9.490568 4.650099 -42.479582 -7.731787 -3.631480 -3.350984 -80.680442 18.010700 0.000000 0.000000 0.000000 12.552673 -14.361220 -12.442564 58.266498 -4.259711 -10.950693 60.372417 69.215886 37.028164 0.000000 0.000000 0.000000 
-0.025708 0.949937 -0.038751 -1.180162 -17.753838 2.952510 8.452810 0.482247 6.044548 -5.666202 0.781738 -9.178858 7.180222 14.649106 17.085423 0.000000 0.000000 0.000000 -0.045091 0.409556 -4.435234 -0.717489 0.003330 -1.141603 5.400646 3.472729 11.017994 0.000000 0.000000 0.000000 7.137804 -0.460425 4.003756 -7.544315 2.157617 -23.592105 -3.166164 -9.318014 31.205846 4.885834 -4.415230 -28.940886 0.000000 0.000000 0.000000 -1.773016 -7.500534 3.478576 -40.050778 -5.683471 -4.558071 17.931932 -84.865494 -0.938532 0.000000 0.000000 0.000000 13.037616 -15.262360 -12.034680 58.069248 -2.938445 -10.097120 56.432164 72.400798 38.296195 0.000000 0.000000 0.000000 
-0.025388 0.950451 -0.039696 -1.449403 -14.464598 2.770341 9.159470 0.339860 5.140311 -5.615505 0.722318 -8.363658 5.648635 12.636481 16.151416 0.000000 0.000000 0.000000 0.200060 0.317012 -3.486121 -0.376537 -0.046778 -1.848099 4.017515 1.014981 11.286749 0.000000 0.000000 0.000000 6.724232 -0.440805 3.821078 -8.282184 2.408024 -23.616096 -1.724603 -7.170950 31.166368 5.570800 -4.177973 -28.485622 0.000000 0.000000 0.000000 -1.125850 -6.284028 2.665060 -37.999409 -5.701080 -4.630709 59.961232 -83.502568 -40.145638 0.000000 0.000000 0.000000 13.398850 -15.812758 -11.571015 57.613302 -1.297150 -9.163466 50.126898 75.337277 37.290769 0.000000 0.000000 0.000000 
-0.024303 0.950837 -0.040157 -1.817713 -11.473061 2.709157 10.080541 0.215059 4.528939 -5.984786 0.701183 -8.194605 4.211031 10.710184 15.513632 0.000000 0.000000 0.000000 0.619452 0.238005 -2.723841 -0.255158 -0.080520 -2.505652 2.767629 -1.207644 11.680479 0.000000 0.000000 0.000000 6.733971 -0.399358 3.263953 -8.850727 2.646603 -22.482465 -0.332069 -5.069325 29.354291 6.136451 -3.897117 -27.301063 0.000000 0.000000 0.000000 -0.779791 -4.638285 1.867593 -36.382740 -6.765655 -4.239147 65.396158 -81.973086 -45.920260 0.000000 0.000000 0.000000 12.913076 -16.471863 -10.839784 57.039214 -1.178162 -8.879416 45.805937 75.953578 36.059297 0.000000 0.000000 0.000000 
-0.022341 0.951111 -0.040257 -1.572379 -8.461396 2.542987 10.049254 0.106560 3.874473 -6.011821 0.654180 -8.016219 2.775627 8.772485 15.042596 0.000000 0.000000 0.000000 0.453797 0.144094 -1.681062 -0.357490 -0.119839 -3.676603 1.476818 -3.434892 12.097755 0.000000 0.000000 0.000000 6.541527 -0.364297 2.884126 -9.642774 2.902470 -22.598236 0.479960 -3.580376 29.202232 6.824939 -3.883190 -26.300606 0.000000 0.000000 0.000000 -2.044731 -3.509554 1.524152 -33.735144 -8.285056 -3.780434 61.759489 -80.136890 -43.359327 0.000000 0.000000 0.000000 12.953176 -16.718239 -10.371549 55.930154 -0.801396 -8.480024 40.346507 75.698298 33.164355 0.000000 0.000000 0.000000 
-0.019422 0.951495 -0.040319 -1.766995 -5.773309 2.280818 10.468193 0.008177 3.381724 -6.209849 0.623057 -7.684456 1.516001 7.043537 14.551094 0.000000 0.000000 0.000000 0.535187 0.051757 -0.734307 -0.177036 -0.159431 -4.411096 0.360473 -5.380430 12.703826 0.000000 0.000000 0.000000 6.716690 -0.354675 2.685393 -10.300534 3.144232 -22.133091 1.226525 -2.289848 28.168472 7.364062 -3.838263 -25.174879 0.000000 0.000000 0.000000 -2.215809 -2.088119 0.890268 -33.002644 -10.025637 -3.226418 54.088729 -80.531425 -38.513763 0.000000 0.000000 0.000000 12.827180 -16.762576 -9.847263 55.520865 -1.659969 -8.682648 38.472273 74.793455 32.546087 0.000000 0.000000 0.000000 
-0.015909 0.951137 -0.040545 -1.350497 -3.530002 2.211530 10.177267 -0.059273 2.894725 -6.535603 0.600231 -7.682782 0.450127 5.572686 14.250761 0.000000 0.000000 0.000000 0.065033 0.019435 -0.233155 -0.310520 -0.172653 -4.903155 -0.692436 -7.073228 12.903038 0.000000 0.000000 0.000000 6.575207 -0.339920 2.516443 -10.810094 3.293334 -22.325222 1.454331 -1.421813 28.079316 7.892150 -3.872299 -24.626593 0.000000 0.000000 0.000000 -2.904250 -1.288595 0.528633 -32.615217 -10.539864 -3.053986 44.865505 -82.046387 -32.533509 0.000000 0.000000 0.000000 12.998074 -16.973337 -9.662614 55.189407 -2.414505 -8.910184 41.379972 74.401932 35.740465 0.000000 0.000000 0.000000 
-0.011793 0.950790 -0.040807 -1.154566 -2.201015 2.261280 9.777090 -0.091728 2.489817 -6.487385 0.573423 -7.634165 -0.127249 4.734506 13.930322 0.000000 0.000000 0.000000 -0.233845 -0.010836 0.181977 -0.490301 -0.190839 -5.565936 -1.279267 -8.057821 13.225107 0.000000 0.000000 0.000000 6.602063 -0.297215 2.020722 -11.127266 3.375015 -22.504001 1.685745 -0.602362 28.228905 8.416460 -4.045171 -23.958195 0.000000 0.000000 0.000000 -3.365478 -0.523633 0.168352 -33.217011 -10.497294 -3.098104 27.752902 -82.844858 -18.455001 0.000000 0.000000 0.000000 12.578003 -17.189538 -9.418788 55.834886 -3.642594 -9.539235 46.294603 72.872912 39.528868 0.000000 0.000000 0.000000 
-0.007458 0.950251 -0.041046 -0.787627 -1.453448 2.391364 9.030258 -0.091741 2.423571 -6.289362 0.541279 -8.101998 -0.465290 4.246723 13.790210 0.000000 0.000000 0.000000 -0.879252 0.001589 0.280556 -0.481081 -0.206349 -5.907992 -1.644556 -8.647793 13.326751 0.000000 0.000000 0.000000 6.306276 -0.258901 1.670492 -11.130123 3.372391 -22.633926 1.600606 -0.048349 28.331676 8.696469 -4.146987 -23.375440 0.000000 0.000000 0.000000 -3.426150 -0.188988 -0.008509 -34.181056 -9.397162 -3.403146 6.190997 -82.876144 0.119861 0.000000 0.000000 0.000000 12.413418 -16.932045 -9.108219 56.845005 -4.445649 -10.043862 49.390781 71.192440 41.363589 0.000000 0.000000 0.000000 
